<?xml version="1.0" encoding="UTF-8" standalone="no"?><svg xmlns="http://www.w3.org/2000/svg" xmlns:xlink="http://www.w3.org/1999/xlink" contentStyleType="text/css" height="474px" preserveAspectRatio="none" style="width:852px;height:474px;background:#FFFFFF;" version="1.1" viewBox="0 0 852 474" width="852px" zoomAndPan="magnify"><defs/><g><ellipse cx="549.25" cy="20" fill="#222222" rx="10" ry="10" style="stroke:#222222;stroke-width:1.0;"/><rect fill="#F1F1F1" height="33.9688" rx="12.5" ry="12.5" style="stroke:#181818;stroke-width:0.5;" width="78" x="510.25" y="50"/><text fill="#000000" font-family="sans-serif" font-size="12" lengthAdjust="spacing" textLength="58" x="520.25" y="71.1387">api called</text><polygon fill="#F1F1F1" points="509.75,103.9688,588.75,103.9688,600.75,115.9688,588.75,127.9688,509.75,127.9688,497.75,115.9688,509.75,103.9688" style="stroke:#181818;stroke-width:0.5;"/><text fill="#000000" font-family="sans-serif" font-size="11" lengthAdjust="spacing" textLength="79" x="509.75" y="119.7769">params valid?</text><text fill="#000000" font-family="sans-serif" font-size="11" lengthAdjust="spacing" textLength="21" x="476.75" y="113.3745">yes</text><text fill="#000000" font-family="sans-serif" font-size="11" lengthAdjust="spacing" textLength="14" x="600.75" y="113.3745">no</text><rect fill="#F1F1F1" height="33.9688" rx="12.5" ry="12.5" style="stroke:#181818;stroke-width:0.5;" width="144" x="227.5" y="137.9688"/><text fill="#000000" font-family="sans-serif" font-size="12" lengthAdjust="spacing" textLength="124" x="237.5" y="159.1074">get github files meta</text><rect fill="#F1F1F1" height="33.9688" rx="12.5" ry="12.5" style="stroke:#181818;stroke-width:0.5;" width="227" x="186" y="191.9375"/><text fill="#000000" font-family="sans-serif" font-size="12" lengthAdjust="spacing" textLength="207" x="196" y="213.0762">filter files meta by year and month</text><polygon fill="#F1F1F1" points="178,245.9063,421,245.9063,433,257.9063,421,269.9063,178,269.9063,166,257.9063,178,245.9063" style="stroke:#181818;stroke-width:0.5;"/><text fill="#000000" font-family="sans-serif" font-size="11" lengthAdjust="spacing" textLength="243" x="178" y="261.7144">all related records are saved in database?</text><text fill="#000000" font-family="sans-serif" font-size="11" lengthAdjust="spacing" textLength="21" x="145" y="255.312">yes</text><text fill="#000000" font-family="sans-serif" font-size="11" lengthAdjust="spacing" textLength="14" x="433" y="255.312">no</text><rect fill="#F1F1F1" height="33.9688" rx="12.5" ry="12.5" style="stroke:#181818;stroke-width:0.5;" width="162" x="39.5" y="279.9063"/><text fill="#000000" font-family="sans-serif" font-size="12" lengthAdjust="spacing" textLength="142" x="49.5" y="301.0449">get data from database</text><rect fill="#F1F1F1" height="33.9688" rx="12.5" ry="12.5" style="stroke:#181818;stroke-width:0.5;" width="219" x="11" y="333.875"/><text fill="#000000" font-family="sans-serif" font-size="12" lengthAdjust="spacing" textLength="199" x="21" y="355.0137">return status 200 with result json</text><ellipse cx="120.5" cy="398.8438" fill="none" rx="11" ry="11" style="stroke:#222222;stroke-width:1.0;"/><ellipse cx="120.5" cy="398.8438" fill="#222222" rx="6" ry="6" style="stroke:#111111;stroke-width:1.0;"/><rect fill="#F1F1F1" height="33.9688" rx="12.5" ry="12.5" style="stroke:#181818;stroke-width:0.5;" width="457" x="250" y="279.9063"/><text fill="#000000" font-family="sans-serif" font-size="12" lengthAdjust="spacing" textLength="437" x="260" y="301.0449">get all missing covid case records by url providered from the files meta</text><rect fill="#F1F1F1" height="33.9688" rx="12.5" ry="12.5" style="stroke:#181818;stroke-width:0.5;" width="173" x="392" y="333.875"/><text fill="#000000" font-family="sans-serif" font-size="12" lengthAdjust="spacing" textLength="153" x="402" y="355.0137">store results to database</text><rect fill="#F1F1F1" height="33.9688" rx="12.5" ry="12.5" style="stroke:#181818;stroke-width:0.5;" width="219" x="369" y="387.8438"/><text fill="#000000" font-family="sans-serif" font-size="12" lengthAdjust="spacing" textLength="199" x="379" y="408.9824">return status 200 with result json</text><ellipse cx="478.5" cy="452.8125" fill="none" rx="11" ry="11" style="stroke:#222222;stroke-width:1.0;"/><ellipse cx="478.5" cy="452.8125" fill="#222222" rx="6" ry="6" style="stroke:#111111;stroke-width:1.0;"/><rect fill="#F1F1F1" height="33.9688" rx="12.5" ry="12.5" style="stroke:#181818;stroke-width:0.5;" width="124" x="717" y="137.9688"/><text fill="#000000" font-family="sans-serif" font-size="12" lengthAdjust="spacing" textLength="104" x="727" y="159.1074">return status 422</text><ellipse cx="779" cy="201.9375" fill="none" rx="10" ry="10" style="stroke:#222222;stroke-width:1.5;"/><line style="stroke:#222222;stroke-width:2.5;" x1="772.8128" x2="785.1872" y1="195.7503" y2="208.1247"/><line style="stroke:#222222;stroke-width:2.5;" x1="785.1872" x2="772.8128" y1="195.7503" y2="208.1247"/><line style="stroke:#181818;stroke-width:1.0;" x1="549.25" x2="549.25" y1="30" y2="50"/><polygon fill="#181818" points="545.25,40,549.25,50,553.25,40,549.25,44" style="stroke:#181818;stroke-width:1.0;"/><line style="stroke:#181818;stroke-width:1.0;" x1="299.5" x2="299.5" y1="171.9375" y2="191.9375"/><polygon fill="#181818" points="295.5,181.9375,299.5,191.9375,303.5,181.9375,299.5,185.9375" style="stroke:#181818;stroke-width:1.0;"/><line style="stroke:#181818;stroke-width:1.0;" x1="120.5" x2="120.5" y1="313.875" y2="333.875"/><polygon fill="#181818" points="116.5,323.875,120.5,333.875,124.5,323.875,120.5,327.875" style="stroke:#181818;stroke-width:1.0;"/><line style="stroke:#181818;stroke-width:1.0;" x1="120.5" x2="120.5" y1="367.8438" y2="387.8438"/><polygon fill="#181818" points="116.5,377.8438,120.5,387.8438,124.5,377.8438,120.5,381.8438" style="stroke:#181818;stroke-width:1.0;"/><line style="stroke:#181818;stroke-width:1.0;" x1="478.5" x2="478.5" y1="313.875" y2="333.875"/><polygon fill="#181818" points="474.5,323.875,478.5,333.875,482.5,323.875,478.5,327.875" style="stroke:#181818;stroke-width:1.0;"/><line style="stroke:#181818;stroke-width:1.0;" x1="478.5" x2="478.5" y1="367.8438" y2="387.8438"/><polygon fill="#181818" points="474.5,377.8438,478.5,387.8438,482.5,377.8438,478.5,381.8438" style="stroke:#181818;stroke-width:1.0;"/><line style="stroke:#181818;stroke-width:1.0;" x1="478.5" x2="478.5" y1="421.8125" y2="441.8125"/><polygon fill="#181818" points="474.5,431.8125,478.5,441.8125,482.5,431.8125,478.5,435.8125" style="stroke:#181818;stroke-width:1.0;"/><line style="stroke:#181818;stroke-width:1.0;" x1="166" x2="120.5" y1="257.9063" y2="257.9063"/><line style="stroke:#181818;stroke-width:1.0;" x1="120.5" x2="120.5" y1="257.9063" y2="279.9063"/><polygon fill="#181818" points="116.5,269.9063,120.5,279.9063,124.5,269.9063,120.5,273.9063" style="stroke:#181818;stroke-width:1.0;"/><line style="stroke:#181818;stroke-width:1.0;" x1="433" x2="478.5" y1="257.9063" y2="257.9063"/><line style="stroke:#181818;stroke-width:1.0;" x1="478.5" x2="478.5" y1="257.9063" y2="279.9063"/><polygon fill="#181818" points="474.5,269.9063,478.5,279.9063,482.5,269.9063,478.5,273.9063" style="stroke:#181818;stroke-width:1.0;"/><line style="stroke:#181818;stroke-width:1.0;" x1="299.5" x2="299.5" y1="225.9063" y2="245.9063"/><polygon fill="#181818" points="295.5,235.9063,299.5,245.9063,303.5,235.9063,299.5,239.9063" style="stroke:#181818;stroke-width:1.0;"/><line style="stroke:#181818;stroke-width:1.0;" x1="779" x2="779" y1="171.9375" y2="191.9375"/><polygon fill="#181818" points="775,181.9375,779,191.9375,783,181.9375,779,185.9375" style="stroke:#181818;stroke-width:1.0;"/><line style="stroke:#181818;stroke-width:1.0;" x1="497.75" x2="299.5" y1="115.9688" y2="115.9688"/><line style="stroke:#181818;stroke-width:1.0;" x1="299.5" x2="299.5" y1="115.9688" y2="137.9688"/><polygon fill="#181818" points="295.5,127.9688,299.5,137.9688,303.5,127.9688,299.5,131.9688" style="stroke:#181818;stroke-width:1.0;"/><line style="stroke:#181818;stroke-width:1.0;" x1="600.75" x2="779" y1="115.9688" y2="115.9688"/><line style="stroke:#181818;stroke-width:1.0;" x1="779" x2="779" y1="115.9688" y2="137.9688"/><polygon fill="#181818" points="775,127.9688,779,137.9688,783,127.9688,779,131.9688" style="stroke:#181818;stroke-width:1.0;"/><line style="stroke:#181818;stroke-width:1.0;" x1="549.25" x2="549.25" y1="83.9688" y2="103.9688"/><polygon fill="#181818" points="545.25,93.9688,549.25,103.9688,553.25,93.9688,549.25,97.9688" style="stroke:#181818;stroke-width:1.0;"/><!--MD5=[ea20c1023cc3b9fb57abef50d2bdf12e]
@startuml
start
:api called;
if (params valid?) then (yes)
  :get github files meta;
  :filter files meta by year and month;
  if (all related records are saved in database?) then (yes)
    :get data from database;
    :return status 200 with result json;
    stop
  else (no)
    :get all missing covid case records by url providered from the files meta;
    :store results to database;
    :return status 200 with result json;
    stop
  endif
else (no)
  :return status 422;
  end
endif
@enduml

PlantUML version 1.2022.8beta9(Unknown compile time)
(GPL source distribution)
Java Runtime: Java(TM) SE Runtime Environment
JVM: Java HotSpot(TM) 64-Bit Server VM
Default Encoding: UTF-8
Language: en
Country: US
--></g></svg>