<?xml version="1.0" encoding="UTF-8" standalone="no"?><svg xmlns="http://www.w3.org/2000/svg" xmlns:xlink="http://www.w3.org/1999/xlink" contentStyleType="text/css" height="608px" preserveAspectRatio="none" style="width:543px;height:608px;background:#FFFFFF;" version="1.1" viewBox="0 0 543 608" width="543px" zoomAndPan="magnify"><defs/><g><ellipse cx="271.5" cy="20" fill="#222222" rx="10" ry="10" style="stroke:#222222;stroke-width:1.0;"/><rect fill="#F1F1F1" height="33.9688" rx="12.5" ry="12.5" style="stroke:#181818;stroke-width:0.5;" width="78" x="232.5" y="50"/><text fill="#000000" font-family="sans-serif" font-size="12" lengthAdjust="spacing" textLength="58" x="242.5" y="71.1387">api called</text><rect fill="#F1F1F1" height="33.9688" rx="12.5" ry="12.5" style="stroke:#181818;stroke-width:0.5;" width="207" x="168" y="103.9688"/><text fill="#000000" font-family="sans-serif" font-size="12" lengthAdjust="spacing" textLength="187" x="178" y="125.1074">get all fileMetas from database</text><rect fill="#F1F1F1" height="33.9688" rx="12.5" ry="12.5" style="stroke:#181818;stroke-width:0.5;" width="214" x="164.5" y="157.9375"/><text fill="#000000" font-family="sans-serif" font-size="12" lengthAdjust="spacing" textLength="194" x="174.5" y="179.0762">get github covid case files meta</text><rect fill="#F1F1F1" height="33.9688" rx="12.5" ry="12.5" style="stroke:#181818;stroke-width:0.5;" width="521" x="11" y="211.9063"/><text fill="#000000" font-family="sans-serif" font-size="12" lengthAdjust="spacing" textLength="501" x="21" y="233.0449">get the list of files existing in the database, and get their latest version from github</text><rect fill="#F1F1F1" height="33.9688" rx="12.5" ry="12.5" style="stroke:#181818;stroke-width:0.5;" width="322" x="110.5" y="265.875"/><text fill="#000000" font-family="sans-serif" font-size="12" lengthAdjust="spacing" textLength="302" x="120.5" y="287.0137">compare files' Last_Update with the database one</text><rect fill="#F1F1F1" height="33.9688" rx="12.5" ry="12.5" style="stroke:#181818;stroke-width:0.5;" width="305" x="119" y="412.2461"/><text fill="#000000" font-family="sans-serif" font-size="12" lengthAdjust="spacing" textLength="285" x="129" y="433.3848">update the database record with the latest one</text><polygon fill="#F1F1F1" points="207,363.8438,336,363.8438,348,375.8438,336,387.8438,207,387.8438,195,375.8438,207,363.8438" style="stroke:#181818;stroke-width:0.5;"/><text fill="#000000" font-family="sans-serif" font-size="11" lengthAdjust="spacing" textLength="21" x="275.5" y="398.0542">yes</text><text fill="#000000" font-family="sans-serif" font-size="11" lengthAdjust="spacing" textLength="129" x="207" y="379.6519">Last_Update different?</text><text fill="#000000" font-family="sans-serif" font-size="11" lengthAdjust="spacing" textLength="14" x="348" y="373.2495">no</text><polygon fill="#F1F1F1" points="271.5,466.2148,283.5,478.2148,271.5,490.2148,259.5,478.2148,271.5,466.2148" style="stroke:#181818;stroke-width:0.5;"/><polygon fill="#F1F1F1" points="271.5,319.8438,283.5,331.8438,271.5,343.8438,259.5,331.8438,271.5,319.8438" style="stroke:#181818;stroke-width:0.5;"/><polygon fill="#F1F1F1" points="233.5,510.2148,309.5,510.2148,321.5,522.2148,309.5,534.2148,233.5,534.2148,221.5,522.2148,233.5,510.2148" style="stroke:#181818;stroke-width:0.5;"/><text fill="#000000" font-family="sans-serif" font-size="11" lengthAdjust="spacing" textLength="76" x="233.5" y="526.0229">more record?</text><text fill="#000000" font-family="sans-serif" font-size="11" lengthAdjust="spacing" textLength="21" x="321.5" y="519.6206">yes</text><ellipse cx="271.5" cy="586.6138" fill="none" rx="11" ry="11" style="stroke:#222222;stroke-width:1.0;"/><ellipse cx="271.5" cy="586.6138" fill="#222222" rx="6" ry="6" style="stroke:#111111;stroke-width:1.0;"/><line style="stroke:#181818;stroke-width:1.0;" x1="271.5" x2="271.5" y1="30" y2="50"/><polygon fill="#181818" points="267.5,40,271.5,50,275.5,40,271.5,44" style="stroke:#181818;stroke-width:1.0;"/><line style="stroke:#181818;stroke-width:1.0;" x1="271.5" x2="271.5" y1="83.9688" y2="103.9688"/><polygon fill="#181818" points="267.5,93.9688,271.5,103.9688,275.5,93.9688,271.5,97.9688" style="stroke:#181818;stroke-width:1.0;"/><line style="stroke:#181818;stroke-width:1.0;" x1="271.5" x2="271.5" y1="137.9375" y2="157.9375"/><polygon fill="#181818" points="267.5,147.9375,271.5,157.9375,275.5,147.9375,271.5,151.9375" style="stroke:#181818;stroke-width:1.0;"/><line style="stroke:#181818;stroke-width:1.0;" x1="271.5" x2="271.5" y1="191.9063" y2="211.9063"/><polygon fill="#181818" points="267.5,201.9063,271.5,211.9063,275.5,201.9063,271.5,205.9063" style="stroke:#181818;stroke-width:1.0;"/><line style="stroke:#181818;stroke-width:1.0;" x1="271.5" x2="271.5" y1="245.875" y2="265.875"/><polygon fill="#181818" points="267.5,255.875,271.5,265.875,275.5,255.875,271.5,259.875" style="stroke:#181818;stroke-width:1.0;"/><line style="stroke:#181818;stroke-width:1.0;" x1="271.5" x2="271.5" y1="387.8438" y2="412.2461"/><polygon fill="#181818" points="267.5,402.2461,271.5,412.2461,275.5,402.2461,271.5,406.2461" style="stroke:#181818;stroke-width:1.0;"/><line style="stroke:#181818;stroke-width:1.0;" x1="348" x2="434" y1="375.8438" y2="375.8438"/><polygon fill="#181818" points="430,419.2305,434,429.2305,438,419.2305,434,423.2305" style="stroke:#181818;stroke-width:1.0;"/><line style="stroke:#181818;stroke-width:1.0;" x1="434" x2="434" y1="375.8438" y2="478.2148"/><line style="stroke:#181818;stroke-width:1.0;" x1="434" x2="283.5" y1="478.2148" y2="478.2148"/><polygon fill="#181818" points="293.5,474.2148,283.5,478.2148,293.5,482.2148,289.5,478.2148" style="stroke:#181818;stroke-width:1.0;"/><line style="stroke:#181818;stroke-width:1.0;" x1="271.5" x2="271.5" y1="446.2148" y2="466.2148"/><polygon fill="#181818" points="267.5,456.2148,271.5,466.2148,275.5,456.2148,271.5,460.2148" style="stroke:#181818;stroke-width:1.0;"/><line style="stroke:#181818;stroke-width:1.0;" x1="271.5" x2="271.5" y1="343.8438" y2="363.8438"/><polygon fill="#181818" points="267.5,353.8438,271.5,363.8438,275.5,353.8438,271.5,357.8438" style="stroke:#181818;stroke-width:1.0;"/><line style="stroke:#181818;stroke-width:1.0;" x1="321.5" x2="458" y1="522.2148" y2="522.2148"/><polygon fill="#181818" points="454,439.2305,458,429.2305,462,439.2305,458,435.2305" style="stroke:#181818;stroke-width:1.0;"/><line style="stroke:#181818;stroke-width:1.0;" x1="458" x2="458" y1="331.8438" y2="522.2148"/><line style="stroke:#181818;stroke-width:1.0;" x1="458" x2="283.5" y1="331.8438" y2="331.8438"/><polygon fill="#181818" points="293.5,327.8438,283.5,331.8438,293.5,335.8438,289.5,331.8438" style="stroke:#181818;stroke-width:1.0;"/><line style="stroke:#181818;stroke-width:1.0;" x1="271.5" x2="271.5" y1="490.2148" y2="510.2148"/><polygon fill="#181818" points="267.5,500.2148,271.5,510.2148,275.5,500.2148,271.5,504.2148" style="stroke:#181818;stroke-width:1.0;"/><line style="stroke:#181818;stroke-width:1.0;" x1="271.5" x2="271.5" y1="299.8438" y2="319.8438"/><polygon fill="#181818" points="267.5,309.8438,271.5,319.8438,275.5,309.8438,271.5,313.8438" style="stroke:#181818;stroke-width:1.0;"/><line style="stroke:#181818;stroke-width:1.0;" x1="271.5" x2="271.5" y1="534.2148" y2="575.6138"/><polygon fill="#181818" points="267.5,565.6138,271.5,575.6138,275.5,565.6138,271.5,569.6138" style="stroke:#181818;stroke-width:1.0;"/><text fill="#000000" font-family="sans-serif" font-size="11" lengthAdjust="spacing" textLength="14" x="275.5" y="555.5195">no</text><!--MD5=[b177a14a668c1719c191547b3da92461]
@startuml
start
:api called;
:get all fileMetas from database;
:get github covid case files meta;
:get the list of files existing in the database, and get their latest version from github;
:compare files' Last_Update with the database one;
repeat
  if (Last_Update different?) then (yes)
    :update the database record with the latest one;
  else (no)
  endif
repeat while (more record?) is (yes)
->no;
stop
@enduml

PlantUML version 1.2022.8beta9(Unknown compile time)
(GPL source distribution)
Java Runtime: Java(TM) SE Runtime Environment
JVM: Java HotSpot(TM) 64-Bit Server VM
Default Encoding: UTF-8
Language: en
Country: US
--></g></svg>